Format                           : Matroska
File size                        : 799 MiB
Duration                         : 1h 14mn
Overall bit rate                 : 1 497 Kbps
Codec ID                         : XVID
Codec ID/Hint                    : XviD
Duration                         : 1h 14mn
Bit rate                         : 827 Kbps
Width                            : 640 pixels
Height                           : 352 pixels
Display aspect ratio             : 16:9
Frame rate                       : 24.975 fps

Audio #1
ID                               : 2
Format                           : MPEG Audio
Format version                   : Version 1
Format profile                   : Layer 2
Codec ID                         : A_MPEG/L2
Codec ID/Hint                    : MP2
Duration                         : 1h 14mn
Bit rate mode                    : Constant
Bit rate                         : 192 Kbps
Channel(s)                       : 2 channels
Sampling rate                    : 48.0 KHz
Video delay                      : 500ms
Stream size                      : 102 MiB (13%)
Title                            : amit6688
Language                         : Hindi

Audio #2
ID                               : 3
Format                           : AC-3
Format/Info                      : Audio Coding 3
Mode extension                   : CM (complete main)
Codec ID                         : A_AC3
Duration                         : 1h 14mn
Bit rate mode                    : Constant
Bit rate                         : 448 Kbps
Channel(s)                       : 6 channels
Channel positions                : Front: L C R, Side: L R, LFE
Sampling rate                    : 48.0 KHz
Stream size                      : 239 MiB (30%)
Title                            : English
Language                         : English  
